PathFileType  4	(X/Y/Z) D:/Data/Berkelmans/SUB01/trc/slow_skatebelt
DataRate	CameraRate	NumFrames	NumMarkers	Units	OrigDataRate	OrigDataStartFrame	OrigNumFrames
100.0	100.0	8	31	m	100.0	101	800
Frame#	Time	LCAL			RCAL			C7			LSHO			RTIB2			RFEM2			LFEM2			RTIB3			RFEM1			LSIPS			RTIB1			LTIB2			RFEM3			RSHO			RKNEE_med			LKNEE_lat			RKNEE_lat			LMTP5			RMTP5			RSIAS			RSIPS			LSIAS			LKNEE_med			LANK_lat			LANK_med			RANK_lat			RANK_med			LTIB3			LTIB1			LFEM3			LFEM1			
		X1	Y1	Z1	X2	Y2	Z2	X3	Y3	Z3	X4	Y4	Z4	X5	Y5	Z5	X6	Y6	Z6	X7	Y7	Z7	X8	Y8	Z8	X9	Y9	Z9	X10	Y10	Z10	X11	Y11	Z11	X12	Y12	Z12	X13	Y13	Z13	X14	Y14	Z14	X15	Y15	Z15	X16	Y16	Z16	X17	Y17	Z17	X18	Y18	Z18	X19	Y19	Z19	X20	Y20	Z20	X21	Y21	Z21	X22	Y22	Z22	X23	Y23	Z23	X24	Y24	Z24	X25	Y25	Z25	X26	Y26	Z26	X27	Y27	Z27	X28	Y28	Z28	X29	Y29	Z29	X30	Y30	Z30	X31	Y31	Z31	

101	-1.9950000	-0.2423083	0.0752685	-0.0413607	0.0968073	0.0614020	0.0694683	-0.1314109	1.3867645	-0.0396742	-0.0438147	1.4344012	-0.1673231	0.0936491	0.3213245	0.1576393	0.0450362	0.5682596	0.1672263	-0.0846801	0.6048075	-0.1472687	0.0446235	0.3170813	0.1196105	-0.0287380	0.6469379	0.1769942	-0.1215413	1.0334872	-0.0554710	0.0621307	0.3824317	0.1526457	-0.1355814	0.3460620	-0.1366572	-0.0038127	0.5717551	0.1352040	-0.0502731	1.3980044	0.2027837	0.1305011	0.5219153	0.0567100	-0.0342022	0.4723138	-0.1135660	0.1284642	0.5036686	0.1489362	-0.0864523	0.0423878	-0.1146166	0.2573015	0.0553957	0.1423366	0.0727923	0.9797678	0.1221067	-0.1226516	1.0240315	0.0586910	0.0721801	0.9761871	-0.1033972	-0.0328174	0.4879161	-0.0213721	-0.1814441	0.1084270	-0.0935708	-0.1593302	0.1117472	-0.0149181	0.1526288	0.1025489	0.1201566	0.1701178	0.1171336	0.0390848	-0.1727677	0.3700922	-0.1074705	-0.1318350	0.4146210	-0.1338582	-0.1290011	0.6244263	-0.0990743	-0.1201660	0.7031543	-0.1418742
102	-1.9850000	-0.2467885	0.0773259	-0.0410938	0.0922608	0.0620489	0.0697741	-0.1318043	1.3861410	-0.0382347	-0.0446474	1.4338177	-0.1660792	0.0941725	0.3211549	0.1612904	0.0440729	0.5683912	0.1687479	-0.0825606	0.6039718	-0.1456914	0.0448352	0.3176543	0.1236275	-0.0287599	0.6481706	0.1773835	-0.1205518	1.0325362	-0.0541080	0.0635346	0.3827027	0.1565320	-0.1349675	0.3469406	-0.1358291	-0.0047595	0.5720930	0.1365431	-0.0501189	1.3975534	0.2041994	0.1298823	0.5213149	0.0574905	-0.0309685	0.4715388	-0.1126982	0.1300395	0.5037494	0.1498725	-0.0917344	0.0424063	-0.1144487	0.2513630	0.0529657	0.1423131	0.0738812	0.9797428	0.1235210	-0.1218150	1.0233259	0.0601696	0.0730631	0.9761058	-0.1020342	-0.0292665	0.4870972	-0.0201241	-0.1855306	0.1100266	-0.0935479	-0.1635514	0.1128882	-0.0147679	0.1485641	0.1020812	0.1208877	0.1666919	0.1167148	0.0400634	-0.1716502	0.3717153	-0.1064690	-0.1301048	0.4154077	-0.1326527	-0.1266791	0.6235026	-0.0972048	-0.1179910	0.7021712	-0.1399931
103	-1.9750000	-0.2513187	0.0800867	-0.0412812	0.0875517	0.0628148	0.0702117	-0.1318216	1.3855363	-0.0368073	-0.0450604	1.4334505	-0.1648139	0.0948466	0.3211914	0.1645161	0.0446456	0.5690565	0.1713395	-0.0798246	0.6031706	-0.1440597	0.0443773	0.3170736	0.1295846	-0.0276577	0.6496675	0.1787109	-0.1199075	1.0317705	-0.0526101	0.0648478	0.3830279	0.1608197	-0.1337516	0.3479400	-0.1348859	-0.0042159	0.5724555	0.1388333	-0.0502418	1.3974731	0.2055583	0.1301155	0.5210983	0.0584580	-0.0276102	0.4707287	-0.1119980	0.1317730	0.5037726	0.1506950	-0.0969589	0.0424002	-0.1142831	0.2463915	0.0511199	0.1428098	0.0749193	0.9798312	0.1241845	-0.1212549	1.0228241	0.0616147	0.0740258	0.9760240	-0.1008588	-0.0253964	0.4863190	-0.0188962	-0.1897389	0.1117103	-0.0934552	-0.1679746	0.1148725	-0.0153144	0.1442499	0.1017051	0.1217900	0.1625462	0.1164564	0.0410389	-0.1699506	0.3733034	-0.1054332	-0.1278180	0.4163520	-0.1314173	-0.1237690	0.6225269	-0.0951519	-0.1159065	0.7012140	-0.1381457
104	-1.9650000	-0.2554113	0.0834951	-0.0411256	0.0826006	0.0632166	0.0707340	-0.1320945	1.3852163	-0.0352669	-0.0453611	1.4332707	-0.1634636	0.0954143	0.3213717	0.1670148	0.0472767	0.5701328	0.1748152	-0.0769833	0.6024310	-0.1425772	0.0429757	0.3192373	0.1335379	-0.0249995	0.6506630	0.1815253	-0.1192404	1.0312351	-0.0511454	0.0659107	0.3836051	0.1647574	-0.1320244	0.3490828	-0.1341680	-0.0017547	0.5728505	0.1424571	-0.0501291	1.3973194	0.2070301	0.1305235	0.5211646	0.0597819	-0.0234273	0.4699052	-0.1111277	0.1333713	0.5038019	0.1513966	-0.1023518	0.0425613	-0.1140697	0.2413340	0.0495936	0.1427906	0.0758761	0.9801436	0.1254682	-0.1205752	1.0225310	0.0629717	0.0748877	0.9761259	-0.0995504	-0.0211416	0.4855592	-0.0177200	-0.1954850	0.1155728	-0.0944260	-0.1716124	0.1168086	-0.0154171	0.1398523	0.1014441	0.1222676	0.1581542	0.1161999	0.0417883	-0.1677507	0.3751945	-0.1045295	-0.1247037	0.4172786	-0.1302807	-0.1204882	0.6214511	-0.0935465	-0.1135968	0.7002818	-0.1363266
105	-1.9550000	-0.2591612	0.0876744	-0.0413408	0.0774980	0.0634238	0.0711594	-0.1321280	1.3850821	-0.0338883	-0.0460297	1.4332575	-0.1620213	0.0960943	0.3215329	0.1696332	0.0514338	0.5712471	0.1781872	-0.0733538	0.6016278	-0.1409756	0.0415279	0.3202050	0.1381528	-0.0209662	0.6512156	0.1864133	-0.1183084	1.0307427	-0.0497429	0.0668353	0.3843983	0.1679493	-0.1298573	0.3506475	-0.1333995	0.0011517	0.5737345	0.1466071	-0.0500856	1.3975339	0.2083575	0.1315891	0.5214600	0.0607992	-0.0191072	0.4692047	-0.1104703	0.1346870	0.5038543	0.1519971	-0.1074466	0.0425555	-0.1140013	0.2363759	0.0484744	0.1425976	0.0767410	0.9806512	0.1268989	-0.1197649	1.0224737	0.0644712	0.0757680	0.9764493	-0.0982048	-0.0160809	0.4846315	-0.0165683	-0.1986807	0.1182819	-0.0945257	-0.1745976	0.1189938	-0.0156269	0.1353702	0.1012931	0.1228359	0.1536494	0.1159799	0.0422681	-0.1650276	0.3772510	-0.1038036	-0.1210166	0.4185991	-0.1294635	-0.1170956	0.6203849	-0.0916902	-0.1105366	0.6991660	-0.1347703
106	-1.9450000	-0.2624524	0.0928937	-0.0415909	0.0723816	0.0639977	0.0707736	-0.1323820	1.3850429	-0.0323709	-0.0463811	1.4334527	-0.1606891	0.0955648	0.3218209	0.1710947	0.0558186	0.5714811	0.1816843	-0.0692519	0.6008941	-0.1394390	0.0393484	0.3211617	0.1428449	-0.0164918	0.6511852	0.1923976	-0.1176360	1.0304870	-0.0481766	0.0672275	0.3850916	0.1705001	-0.1267044	0.3522942	-0.1328894	0.0038946	0.5731699	0.1528578	-0.0499714	1.3978665	0.2096446	0.1326529	0.5217371	0.0616130	-0.0129041	0.4687801	-0.1102754	0.1351663	0.5038496	0.1523158	-0.1121466	0.0427980	-0.1140118	0.2310711	0.0480446	0.1423786	0.0776174	0.9812963	0.1283117	-0.1191540	1.0226210	0.0661426	0.0764285	0.9768811	-0.0966552	-0.0099972	0.4837913	-0.0155630	-0.2015077	0.1215221	-0.0946902	-0.1769571	0.1220390	-0.0157236	0.1304451	0.1011940	0.1229822	0.1485256	0.1158893	0.0423165	-0.1611654	0.3796322	-0.1030726	-0.1166705	0.4200199	-0.1285931	-0.1131459	0.6191681	-0.0902439	-0.1075975	0.6980232	-0.1332211
107	-1.9350000	-0.2651508	0.0989171	-0.0417657	0.0667947	0.0639912	0.0709438	-0.1326065	1.3851603	-0.0308932	-0.0465241	1.4337457	-0.1592895	0.0946574	0.3221519	0.1718721	0.0601788	0.5715265	0.1839822	-0.0661110	0.6002807	-0.1384108	0.0377909	0.3224887	0.1475078	-0.0123898	0.6503630	0.1982280	-0.1172470	1.0305113	-0.0465513	0.0674513	0.3855987	0.1724674	-0.1229432	0.3542248	-0.1324392	0.0071465	0.5729034	0.1575146	-0.0500807	1.3981266	0.2109608	0.1330864	0.5218537	0.0622010	-0.0064716	0.4680248	-0.1096630	0.1352456	0.5037385	0.1525029	-0.1168820	0.0432992	-0.1140432	0.2259741	0.0479119	0.1424842	0.0783901	0.9820246	0.1299639	-0.1184814	1.0229096	0.0676967	0.0771011	0.9772978	-0.0951072	-0.0031317	0.4830552	-0.0146794	-0.2033268	0.1253732	-0.0950095	-0.1799978	0.1260328	-0.0151928	0.1251435	0.1011741	0.1228759	0.1434097	0.1156475	0.0423608	-0.1568406	0.3822824	-0.1023482	-0.1112774	0.4217232	-0.1280381	-0.1117438	0.6189279	-0.0907042	-0.1039954	0.6966485	-0.1320740
108	-1.9250000	-0.2669533	0.1057280	-0.0419949	0.0612717	0.0639380	0.0710178	-0.1327139	1.3854460	-0.0295269	-0.0471541	1.4340826	-0.1578489	0.0932255	0.3222591	0.1724481	0.0633793	0.5715738	0.1859382	-0.0586891	0.5990511	-0.1362945	0.0360769	0.3231688	0.1488758	-0.0097629	0.6493482	0.2030567	-0.1165587	1.0305469	-0.0450918	0.0666026	0.3859958	0.1735231	-0.1180611	0.3565781	-0.1322049	0.0095795	0.5727263	0.1606855	-0.0498464	1.3985328	0.2124413	0.1325575	0.5217694	0.0625270	0.0012022	0.4674589	-0.1096684	0.1349098	0.5036050	0.1525544	-0.1212731	0.0439570	-0.1142437	0.2202250	0.0477364	0.1420591	0.0790677	0.9828393	0.1315474	-0.1176182	1.0231988	0.0691196	0.0774905	0.9781388	-0.0934177	0.0047641	0.4823834	-0.0137678	-0.2047980	0.1297183	-0.0955061	-0.1793784	0.1285061	-0.0161718	0.1200003	0.1011084	0.1228284	0.1379913	0.1155274	0.0422961	-0.1514036	0.3852429	-0.1018530	-0.1049706	0.4238197	-0.1274129	-0.1036972	0.6161479	-0.0875920	-0.0999179	0.6949545	-0.1309246
